<svg xmlns="http://www.w3.org/2000/svg" viewBox="0 0 512.001 512.001"><path d="M256.005 48.793a9.786 9.786 0 0 1-1.793-.171 9.195 9.195 0 0 1-1.708-.525 9.833 9.833 0 0 1-1.586-.842c-.5-.329-.964-.72-1.391-1.135a9.244 9.244 0 0 1-2.672-6.466c0-.598.061-1.208.183-1.793.11-.586.293-1.159.512-1.708a9.354 9.354 0 0 1 .842-1.586c.329-.5.72-.964 1.135-1.391a9.613 9.613 0 0 1 1.391-1.135c.5-.329 1.037-.61 1.586-.842a9.195 9.195 0 0 1 1.708-.525c2.977-.598 6.136.378 8.259 2.501.427.427.805.891 1.135 1.391s.61 1.025.842 1.586a9.195 9.195 0 0 1 .708 3.501 9.195 9.195 0 0 1-.708 3.489 9.354 9.354 0 0 1-.842 1.586c-.329.5-.708.964-1.135 1.391a9.243 9.243 0 0 1-6.466 2.674z" fill="#fff"/><circle cx="256.005" cy="256.004" r="246.855" fill="#f7b239"/><path d="M126.308 385.694c-88.802-88.802-95.799-228.426-20.999-325.241a249.063 249.063 0 0 0-23.858 20.999c-96.401 96.401-96.401 252.698 0 349.099s252.698 96.401 349.099 0a249.34 249.34 0 0 0 20.999-23.858c-96.814 74.799-236.44 67.802-325.241-20.999z" fill="#e09b2d"/><g fill="#fff"><path d="M472.353 265.15a9.15 9.15 0 0 1-9.15-9.15c0-49.977-18.117-98.28-51.012-136.006-32.582-37.366-77.333-61.873-126.01-69.005-4.999-.733-8.459-5.38-7.726-10.379s5.384-8.454 10.379-7.726c52.993 7.765 101.7 34.43 137.149 75.085 35.802 41.061 55.519 93.632 55.519 148.032a9.149 9.149 0 0 1-9.149 9.149zM131.567 308.186h248.868c0 13.968-2.306 27.4-6.551 39.941H138.118c-4.245-12.541-6.551-25.973-6.551-39.941z"/></g><path d="M138.118 348.127h235.765c-8.369 24.716-24.289 45.931-45.016 60.924-8.71-14.676-24.716-24.509-43.027-24.509a49.746 49.746 0 0 0-29.84 9.882 49.788 49.788 0 0 0-29.852-9.882c-18.299 0-34.317 9.833-43.015 24.509-20.726-14.994-36.646-36.208-45.015-60.924z" fill="#a81004"/><path d="M285.841 384.542c18.311 0 34.317 9.833 43.027 24.509-20.483 14.834-45.662 23.569-72.867 23.569s-52.384-8.735-72.867-23.569c8.698-14.676 24.716-24.509 43.015-24.509a49.782 49.782 0 0 1 29.852 9.882 49.746 49.746 0 0 1 29.84-9.882z" fill="#f95428"/><g fill="#333"><path d="M256 0C114.842 0 .001 114.841.001 256.001s114.841 256 255.999 256c141.159 0 256.001-114.841 256.001-256.001S397.159 0 256 0zm0 493.701c-131.068 0-237.7-106.631-237.7-237.7S124.932 18.299 256 18.299c131.069 0 237.702 106.632 237.702 237.702S387.069 493.701 256 493.701z"/><path d="M141.995 231.285a9.15 9.15 0 0 0 0 18.3h14.116v22.543a9.15 9.15 0 0 0 18.3 0v-23.866c13.436-3.957 23.276-16.397 23.276-31.099 0-14.702-9.839-27.141-23.276-31.099V156.5h14.127a9.15 9.15 0 0 0 0-18.3H174.41v-22.537a9.15 9.15 0 0 0-18.3 0v23.863c-13.432 3.961-23.265 16.398-23.265 31.096s9.834 27.134 23.265 31.095v29.568h-14.116zm37.393-14.121c0 4.299-1.937 8.149-4.977 10.74v-21.482c3.04 2.594 4.977 6.443 4.977 10.742zm-28.243-46.542c0-4.294 1.932-8.139 4.966-10.732v21.462c-3.032-2.591-4.966-6.436-4.966-10.73zM380.668 156.501a9.15 9.15 0 0 0 0-18.3h-14.127v-22.538a9.15 9.15 0 0 0-18.3 0v23.863c-13.432 3.961-23.265 16.398-23.265 31.096s9.834 27.134 23.265 31.095v29.568h-14.116a9.15 9.15 0 0 0 0 18.3h14.116v22.543a9.15 9.15 0 0 0 18.3 0v-23.866c13.436-3.959 23.276-16.397 23.276-31.099 0-14.701-9.839-27.141-23.276-31.099V156.5h14.127zm-37.392 14.121c0-4.294 1.932-8.139 4.966-10.732v21.464c-3.033-2.591-4.966-6.438-4.966-10.732zm28.242 46.542c0 4.299-1.937 8.148-4.977 10.74v-21.481c3.041 2.593 4.977 6.442 4.977 10.741zM380.435 299.036H131.567a9.15 9.15 0 0 0-9.15 9.15c0 14.662 2.367 29.088 7.034 42.876 8.934 26.382 25.643 48.999 48.314 65.4 22.86 16.557 49.914 25.309 78.235 25.309 28.32 0 55.373-8.752 78.23-25.305 22.676-16.405 39.386-39.02 48.319-65.402 4.667-13.788 7.034-28.214 7.034-42.875a9.148 9.148 0 0 0-9.148-9.153zm-9.508 18.3a114.804 114.804 0 0 1-3.809 21.642H144.883a114.885 114.885 0 0 1-3.809-21.642h229.853zm-174.704 89.438c7.649-8.21 18.5-13.083 29.926-13.083 8.87 0 17.302 2.79 24.384 8.069a9.153 9.153 0 0 0 10.936 0c7.082-5.279 15.509-8.069 24.372-8.069 11.422 0 22.274 4.871 29.932 13.086-17.972 10.945-38.453 16.692-59.772 16.692-21.321.001-41.802-5.746-59.778-16.695zm134.454-10.761c-11.137-12.9-27.534-20.619-44.836-20.619-10.624 0-20.819 2.77-29.84 8.066-9.021-5.296-19.221-8.066-29.852-8.066-17.31 0-33.706 7.722-44.829 20.617-12.623-10.71-22.681-23.855-29.665-38.733h208.694c-6.987 14.878-17.045 28.023-29.672 38.735z"/></g><circle cx="256.005" cy="39.648" r="9.15" fill="#fff"/></svg>