<svg xmlns="http://www.w3.org/2000/svg" viewBox="0 0 512.001 512.001"><path d="M256 0C114.842 0 .001 114.841.001 256.001s114.841 256 255.999 256c141.159 0 256.001-114.841 256.001-256.001S397.159 0 256 0zm0 493.701c-131.068 0-237.7-106.631-237.7-237.7S124.932 18.299 256 18.299c131.069 0 237.702 106.632 237.702 237.702S387.069 493.701 256 493.701z"/><path d="M174.41 186.064V156.5h14.127a9.15 9.15 0 0 0 0-18.3H174.41v-22.537a9.15 9.15 0 0 0-18.3 0v23.863c-13.432 3.961-23.266 16.398-23.266 31.096s9.834 27.134 23.266 31.095v29.568h-14.116v-.001a9.15 9.15 0 0 0 0 18.3h14.116v22.543a9.15 9.15 0 1 0 18.3 0v-23.866c13.436-3.958 23.276-16.397 23.276-31.099.001-14.701-9.838-27.141-23.276-31.098zm-18.299-4.711c-3.033-2.591-4.966-6.436-4.966-10.731s1.932-8.139 4.966-10.732v21.463zm18.299 46.551v-21.482c3.04 2.594 4.977 6.443 4.977 10.742.001 4.299-1.936 8.149-4.977 10.74zM366.541 186.065v-29.564h14.127a9.15 9.15 0 0 0 0-18.3h-14.127v-22.538a9.15 9.15 0 0 0-18.3 0v23.863c-13.432 3.961-23.265 16.398-23.265 31.096s9.834 27.134 23.265 31.095v29.568h-14.116a9.15 9.15 0 0 0 0 18.3h14.116v22.543a9.15 9.15 0 0 0 18.3 0v-23.866c13.436-3.959 23.276-16.397 23.276-31.099.001-14.701-9.838-27.14-23.276-31.098zm-18.299-4.711c-3.033-2.591-4.966-6.438-4.966-10.732s1.932-8.139 4.966-10.732v21.464zm18.299 46.55v-21.481c3.041 2.592 4.977 6.441 4.977 10.74 0 4.3-1.937 8.149-4.977 10.741zM380.435 299.036H131.567a9.15 9.15 0 0 0-9.15 9.15c0 14.662 2.367 29.088 7.034 42.876 8.934 26.382 25.643 48.999 48.314 65.4 22.86 16.557 49.914 25.309 78.235 25.309 28.32 0 55.373-8.752 78.23-25.305 22.676-16.405 39.386-39.02 48.319-65.402 4.667-13.788 7.034-28.214 7.034-42.875a9.148 9.148 0 0 0-9.148-9.153zM256.001 423.47c-21.321 0-41.802-5.747-59.778-16.696 7.649-8.21 18.5-13.083 29.926-13.083 8.87 0 17.302 2.79 24.384 8.069a9.153 9.153 0 0 0 10.936 0c7.082-5.279 15.509-8.069 24.372-8.069 11.422 0 22.274 4.871 29.932 13.086-17.972 10.946-38.452 16.693-59.772 16.693zm74.676-27.457c-11.137-12.9-27.534-20.619-44.836-20.619-10.624 0-20.819 2.771-29.84 8.066-9.021-5.296-19.221-8.066-29.852-8.066-17.31 0-33.706 7.722-44.829 20.617-12.623-10.71-22.681-23.855-29.665-38.733h208.694c-6.987 14.878-17.045 28.023-29.672 38.735zm36.441-57.036H144.883a114.885 114.885 0 0 1-3.809-21.642h229.852a114.709 114.709 0 0 1-3.808 21.642z"/></svg>