<svg xmlns="http://www.w3.org/2000/svg" viewBox="0 0 512.001 512.001"><path d="M256.001 0C114.841 0 0 114.841 0 256.001s114.841 256.001 256.001 256.001 256-114.842 256-256.001C512 114.841 397.16 0 256.001 0zm0 493.701c-131.069 0-237.702-106.631-237.702-237.7S124.932 18.299 256.001 18.299s237.702 106.632 237.702 237.7c-.002 131.071-106.635 237.702-237.702 237.702z"/><path d="M357.007 341.76c-26.675-26.674-62.141-41.365-99.864-41.365s-73.189 14.69-99.863 41.365a9.15 9.15 0 0 0 12.94 12.939c23.217-23.218 54.087-36.005 86.923-36.005s63.706 12.787 86.923 36.005a9.12 9.12 0 0 0 6.471 2.68 9.15 9.15 0 0 0 6.47-15.619z"/><path d="M291.334 346.725c-10.817-5.664-23.037-8.658-35.337-8.658-12.297 0-24.513 2.994-35.331 8.658a9.15 9.15 0 0 0-3.861 12.349c2.346 4.477 7.877 6.206 12.351 3.861 8.208-4.298 17.489-6.569 26.841-6.569 9.356 0 18.639 2.271 26.85 6.571a9.149 9.149 0 0 0 12.35-3.862 9.154 9.154 0 0 0-3.863-12.35zM152.702 127.42a9.15 9.15 0 0 0-9.15 9.15c0 26.857-21.849 48.707-48.707 48.707a9.15 9.15 0 0 0-9.15 9.15 9.15 9.15 0 0 0 9.15 9.15c36.947-.001 67.006-30.059 67.006-67.006a9.149 9.149 0 0 0-9.149-9.151zM417.155 185.276c-26.858 0-48.707-21.849-48.707-48.707a9.15 9.15 0 0 0-9.15-9.15 9.15 9.15 0 0 0-9.15 9.15c0 36.947 30.059 67.006 67.006 67.006 5.054 0 9.15-4.097 9.15-9.15s-4.095-9.149-9.149-9.149zM146.725 196.131c-18.666 0-33.852 15.186-33.852 33.852 0 18.666 15.186 33.852 33.852 33.852 18.666 0 33.852-15.186 33.852-33.852s-15.186-33.852-33.852-33.852zM365.275 196.131c-18.666 0-33.852 15.186-33.852 33.852 0 18.666 15.186 33.852 33.852 33.852s33.852-15.186 33.852-33.852c.001-18.666-15.185-33.852-33.852-33.852z"/><circle cx="150.479" cy="225.372" r="9.15"/><circle cx="368.849" cy="225.372" r="9.15"/></svg>